<svg width="37" height="25" viewBox="0 0 37 25" fill="none" xmlns="http://www.w3.org/2000/svg">
<path d="M29.8312 9.31167C28.7829 3.99292 24.1117 0 18.5 0C14.0446 0 10.1904 2.52833 8.26333 6.22833C3.62292 6.72167 0 10.6375 0 15.4167C0 20.5196 4.14708 24.6667 9.25 24.6667H29.2917C33.5467 24.6667 37 21.2133 37 16.9583C37 12.8883 33.8396 9.58917 29.8312 9.31167ZM29.2917 21.5833H9.25C5.84292 21.5833 3.08333 18.8237 3.08333 15.4167C3.08333 12.0096 5.84292 9.25 9.25 9.25C12.6571 9.25 15.4167 12.0096 15.4167 15.4167H18.5C18.5 11.1617 15.6325 7.585 11.7167 6.50583C13.2737 4.44 15.725 3.08333 18.5 3.08333C23.1712 3.08333 26.9792 6.89125 26.9792 11.5625V12.3333H29.2917C31.8354 12.3333 33.9167 14.4146 33.9167 16.9583C33.9167 19.5021 31.8354 21.5833 29.2917 21.5833Z" fill="white"/>
</svg>
